<?xml version="1.0" encoding="UTF-8"?>
<svg width="113px" height="102px" viewBox="0 0 113 102" version="1.1" xmlns="http://www.w3.org/2000/svg">
    <g id="Page-1" stroke="none" stroke-width="1" fill="none" fill-rule="evenodd">
        <g id="logo" fill-rule="nonzero" fill="#FFFFFF">
            <path d="M58.42,2.34 C63.73,-0.84 70.75,0.04 75.85,3.23 C85.02,8.66 94.21,14.07 103.41,19.46 C108.93,22.47 112.51,28.74 112.29,35.03 C112.33,46.38 112.56,57.73 112.53,69.07 C112.04,74.4 109.91,80.28 104.98,83.01 C95.67,88.38 86.35,93.74 77.05,99.13 C71.57,102.56 64.34,101.05 59.07,97.93 C40.75,86.65 22.26,75.63 3.91,64.39 C1.18,63.07 -0.58,59.7 0.81,56.81 C2.1,53.43 6.65,52.43 9.46,54.57 C26.44,64.96 43.36,75.45 60.7,85.25 C63.47,86.63 66.53,89.64 69.8,87.92 C79.37,82.46 88.9,76.93 98.43,71.4 C100.39,70.41 100.89,68.01 100.79,66.01 C100.74,55.33 100.73,44.66 100.69,33.98 C100.82,32.01 99.62,30.17 97.86,29.34 C88.5,24.03 79.19,18.65 69.82,13.35 C68.22,12.31 66.29,13.14 64.82,14 C55.57,19.35 46.32,24.7 37.05,30.03 C35.65,30.87 33.94,32.03 33.97,33.87 C33.79,44.1 33.8,54.33 33.7,64.55 C29.86,62.38 26.02,60.2 22.19,58.02 C22.17,50 22.16,41.98 22.13,33.96 C21.95,27.89 24.98,21.42 30.45,18.48 C39.78,13.11 49.1,7.72 58.42,2.34 Z"
                  id="Shape"></path>
        </g>
    </g>
</svg>
